<?xml version="1.0" encoding="UTF-8"?>
<svg width="11px" height="16px" viewBox="0 0 11 16" version="1.1" xmlns="http://www.w3.org/2000/svg" xmlns:xlink="http://www.w3.org/1999/xlink">
    <!-- Generator: Sketch 46.2 (44496) - http://www.bohemiancoding.com/sketch -->
    <title>?</title>
    <desc>Created with Sketch.</desc>
    <defs></defs>
    <g id="Page-1" stroke="none" stroke-width="1" fill="none" fill-rule="evenodd">
        <g id="scoop-landing" transform="translate(-1283.000000, -173.000000)" fill="#EA1212">
            <g id="intro" transform="translate(25.000000, 25.000000)">
                <path d="M1263.93004,155.120879 C1264.57888,155.120879 1265.08813,154.923079 1265.45782,154.527473 C1265.82751,154.131866 1266.01235,153.611725 1266.01235,152.967033 C1266.01235,152.351645 1265.79355,151.831504 1265.35597,151.406593 C1264.91838,150.981683 1264.32236,150.769231 1263.5679,150.769231 C1263.16049,150.769231 1262.79836,150.838827 1262.48148,150.978022 C1262.16461,151.117217 1261.89301,151.307691 1261.66667,151.549451 C1261.44033,151.79121 1261.27058,152.069595 1261.15741,152.384615 C1261.04424,152.699635 1260.98765,153.025639 1260.98765,153.362637 L1260.98765,154.285714 L1258,154.285714 L1258,153.098901 C1258,152.439557 1258.12448,151.802201 1258.37346,151.186813 C1258.62243,150.571425 1258.98457,150.029306 1259.45988,149.56044 C1259.93519,149.091573 1260.52366,148.714287 1261.22531,148.428571 C1261.92696,148.142856 1262.7229,148 1263.61317,148 C1264.4129,148 1265.14472,148.128204 1265.80864,148.384615 C1266.47257,148.641027 1267.04218,148.996335 1267.51749,149.450549 C1267.9928,149.904764 1268.35871,150.435894 1268.61523,151.043956 C1268.87174,151.652018 1269,152.307689 1269,153.010989 L1269,153.142857 C1269,153.743593 1268.90569,154.315016 1268.71708,154.857143 C1268.52846,155.39927 1268.26063,155.875456 1267.91358,156.285714 C1267.56653,156.695973 1267.13649,157.02564 1266.62346,157.274725 C1266.11042,157.523811 1265.53704,157.648352 1264.90329,157.648352 C1264.69204,157.648352 1264.53361,157.706959 1264.42798,157.824176 C1264.32236,157.941393 1264.26955,158.102563 1264.26955,158.307692 L1264.26955,159.032967 L1261.4177,159.032967 L1261.4177,157.142857 C1261.4177,156.571426 1261.61762,156.091577 1262.01749,155.703297 C1262.41735,155.315016 1262.91152,155.120879 1263.5,155.120879 L1263.93004,155.120879 Z M1265.01646,161.912088 C1265.01646,162.20513 1264.95988,162.479852 1264.84671,162.736264 C1264.73354,162.992675 1264.57888,163.212453 1264.38272,163.395604 C1264.18656,163.578755 1263.95645,163.725274 1263.69239,163.835165 C1263.42833,163.945055 1263.15295,164 1262.86626,164 C1262.56447,164 1262.28532,163.945055 1262.02881,163.835165 C1261.77229,163.725274 1261.54595,163.578755 1261.34979,163.395604 C1261.15363,163.212453 1260.99897,162.992675 1260.8858,162.736264 C1260.77263,162.479852 1260.71605,162.20513 1260.71605,161.912088 C1260.71605,161.619046 1260.77263,161.344324 1260.8858,161.087912 C1260.99897,160.831501 1261.15363,160.611723 1261.34979,160.428571 C1261.54595,160.24542 1261.77229,160.098902 1262.02881,159.989011 C1262.28532,159.87912 1262.56447,159.824176 1262.86626,159.824176 C1263.15295,159.824176 1263.42833,159.87912 1263.69239,159.989011 C1263.95645,160.098902 1264.18656,160.24542 1264.38272,160.428571 C1264.57888,160.611723 1264.73354,160.831501 1264.84671,161.087912 C1264.95988,161.344324 1265.01646,161.619046 1265.01646,161.912088 Z" id="?"></path>
            </g>
        </g>
    </g>
</svg>